<?xml version="1.0" encoding="utf-8"?>
<!-- Svg Vector Icons : http://www.onlinewebfonts.com/icon -->
<!DOCTYPE svg PUBLIC "-//W3C//DTD SVG 1.1//EN" "http://www.w3.org/Graphics/SVG/1.1/DTD/svg11.dtd">
<svg version="1.1" xmlns="http://www.w3.org/2000/svg" xmlns:xlink="http://www.w3.org/1999/xlink" x="0px" y="0px" viewBox="0 0 1000 1000" enable-background="new 0 0 1000 1000" xml:space="preserve">
<metadata> Svg Vector Icons : http://www.onlinewebfonts.com/icon </metadata>
<g><path d="M325.4,500.4c0-98.2,79.7-177.8,177.9-177.8s177.9,79.6,177.9,177.8c0,98.2-79.7,177.8-177.9,177.8C405.1,678.2,325.4,598.6,325.4,500.4L325.4,500.4L325.4,500.4z M501.9,899c-53.9,0-106.1-10.5-155.3-31.3c-47.5-20.1-90.2-48.8-126.8-85.4c-36.6-36.6-65.4-79.2-85.5-126.7c-20.8-49.2-31.4-101.4-31.4-155.2c0-53.8,10.6-106,31.4-155.2c20.1-47.5,48.9-90.1,85.5-126.7c36.6-36.6,79.3-65.3,126.8-85.4c49.2-20.8,101.5-31.3,155.3-31.3c53.9,0,106.1,10.5,155.3,31.3c47.5,20.1,90.2,48.8,126.8,85.4c36.6,36.6,65.4,79.2,85.5,126.7c20.8,49.2,31.4,101.4,31.4,155.2c0,53.8-10.6,106-31.4,155.2c-20.1,47.5-48.9,90.1-85.5,126.7c-36.6,36.6-79.3,65.3-126.8,85.4C608,888.5,555.7,899,501.9,899L501.9,899z M501.9,141c-198.4,0-359.8,161.2-359.8,359.4c0,198.2,161.4,359.4,359.8,359.4c198.4,0,359.8-161.2,359.8-359.4C861.7,302.3,700.3,141,501.9,141L501.9,141z M480.9,10h39.2v111.5h-39.2V10z M480.9,878.5h39.2V990h-39.2V878.5z M10,481.3h113.8v39.2H10V481.3L10,481.3z M876.2,481.3H990v39.2H876.2V481.3L876.2,481.3z"/></g>
</svg>